Coordinates
version=1
nRows=13
nColumns=36
inDegrees=yes

Units are S.I. units (second, meters, Newtons, ...)
If the header above contains a line with 'inDegrees', this indicates whether rotational values are in degrees (yes) or radians (no).

endheader
time	pelvis_tilt	pelvis_list	pelvis_rotation	pelvis_tx	pelvis_ty	pelvis_tz	hip_flexion_r	hip_adduction_r	hip_rotation_r	knee_angle_r	knee_angle_r_beta	ankle_angle_r	subtalar_angle_r	mtp_angle_r	hip_flexion_l	hip_adduction_l	hip_rotation_l	knee_angle_l	knee_angle_l_beta	ankle_angle_l	subtalar_angle_l	mtp_angle_l	lumbar_extension	lumbar_bending	lumbar_rotation	arm_flex_r	arm_add_r	arm_rot_r	elbow_flex_r	pro_sup_r	arm_flex_l	arm_add_l	arm_rot_l	elbow_flex_l	pro_sup_l
      8.88333330	     11.38631969	      9.61688457	      3.70275628	      0.07024440	      0.95070368	      0.13783342	     -1.87758203	     -0.40969363	     -7.65224705	     15.47046390	      0.27001053	      4.60293850	    -13.27562146	     -7.49999987	     36.67384577	      6.25034822	     -3.39436565	      1.79989138	      0.03141403	    -10.44240329	     -4.09603729	     -7.49999987	    -33.60861097	     -4.76349811	     -5.06349951	     54.97331914	      6.42074348	     31.46089761	    140.29932075	    103.71092558	     80.49814411	     13.77620098	     76.83828875	    119.91736571	     82.04361535
      8.90000000	     11.42027639	      9.62730748	      3.96854210	      0.06990608	      0.95104961	      0.13695555	     -1.96597112	     -0.42605114	     -7.75807532	     15.46243050	      0.26987032	      4.89163877	    -13.07488291	     -7.49999987	     36.56787017	      6.42467798	     -3.19066390	      1.77505641	      0.03098058	    -10.53753103	     -4.33186911	     -7.49999987	    -33.71138616	     -4.62620807	     -4.99904573	     54.98242619	      6.28396731	     31.63273904	    140.78128924	    102.21602602	     80.50621032	     14.03081706	     77.14444162	    119.90640983	     80.68560698
      8.91666670	     11.54897452	      9.66013024	      3.91678663	      0.06792662	      0.95163919	      0.13783691	     -1.99351076	     -0.42571232	     -7.38610623	     15.63189488	      0.27282803	      4.74148259	    -13.45622260	     -7.49999987	     36.38986868	      6.42555979	     -3.39580364	      1.74798812	      0.03050815	    -10.60892217	     -3.94483163	     -7.49999987	    -33.87994915	     -4.52869191	     -4.87224255	     55.34825626	      6.19613319	     32.16800720	    140.84913812	    104.03741128	     80.47240842	     13.99696118	     76.83774101	    119.99078684	     82.62938688
      8.93333330	     11.58890133	      9.76144113	      3.97912323	      0.06793249	      0.95246864	      0.13832465	     -1.89763871	     -0.50355182	     -7.27411483	     15.74543275	      0.27480964	      4.63137446	    -13.65117874	     -7.49999987	     36.31824122	      6.57725794	     -3.63782339	      1.74958398	      0.03053600	    -10.61079946	     -3.49595649	     -7.49999987	    -34.08898754	     -4.53960677	     -4.88865691	     55.56989083	      6.14634542	     32.65465714	    141.31905286	    104.36022884	     80.47017076	     14.09369739	     76.95000646	    120.21817748	     83.32353958
      8.95000000	     11.61420834	     10.04730509	      4.04427011	      0.07140768	      0.95087911	      0.13654275	     -1.90586394	     -0.86975577	     -7.31443534	     16.02996185	      0.27977561	      4.69566205	    -13.96688932	     -7.49999987	     36.11921819	      6.97762483	     -3.51007398	      1.63176465	      0.02847967	    -10.80053436	     -3.72601912	     -7.49999987	    -34.24422344	     -4.67504065	     -4.83285453	     55.66378834	      5.96162054	     33.34998821	    141.73940721	    104.54980284	     80.45720234	     14.34562470	     77.02976755	    120.44606847	     83.70035819
      8.96666670	     11.61078405	     10.30680940	      4.13670191	      0.06970978	      0.95066777	      0.13745532	     -1.70659253	     -1.15805026	     -7.31305711	     16.47893157	      0.28761161	      4.85763911	    -14.00685898	     -7.49999987	     35.96129054	      7.32874325	     -3.53331261	      1.61312216	      0.02815429	    -10.92529575	     -4.03375722	     -7.49999987	    -34.34527146	     -4.82683805	     -4.97442993	     55.82793410	      6.02491418	     33.55244816	    141.91539493	    104.28947947	     80.44368657	     14.38028690	     77.04978098	    120.48600849	     83.51254511
      8.98333330	     11.57487708	     10.49397354	      4.05922210	      0.06805225	      0.94999312	      0.13742943	     -1.32681967	     -1.37373971	     -7.00686335	     16.94331782	      0.29571668	      4.79201711	    -14.49000263	     -7.49999987	     35.96028559	      7.57245071	     -3.70065262	      1.58979944	      0.02774723	    -10.84725735	     -4.17014996	     -7.49999987	    -34.36595445	     -4.98501138	     -5.16468634	     56.05404981	      6.07656194	     33.66998045	    141.51304174	    104.31965318	     80.69996034	     14.06159659	     76.83401822	    120.44755537	     83.42676084
      9.00000000	     11.30363510	     10.68822249	      4.01429956	      0.06783221	      0.94878192	      0.13690458	     -0.51036318	     -1.66840443	     -6.62356655	     17.74054696	      0.30963096	      5.06053230	    -14.54735019	     -7.49999987	     36.24970352	      7.82824949	     -3.91804516	      1.78264177	      0.03111297	    -10.61225717	     -4.71546734	     -7.49999987	    -34.31245188	     -5.19676273	     -5.53496113	     56.33720897	      6.29839578	     33.49393027	    141.38755505	    104.03523786	     81.15563179	     13.83770279	     76.70890009	    120.23824343	     82.62475659
      9.01666670	     11.10515916	     10.78639161	      3.98820128	      0.06617300	      0.94977371	      0.13724948	      0.05830306	     -1.71830882	     -5.87960766	     18.27631323	      0.31898184	      4.75445074	    -15.47008648	     -7.49999987	     36.41296869	      7.99972581	     -4.40457145	      1.74274772	      0.03041669	    -10.62667320	     -4.53026905	     -7.49999987	    -34.31120495	     -5.30885068	     -5.47006370	     56.52939941	      6.08746721	     33.66055028	    139.94655899	    104.26636860	     81.23262035	     13.86941515	     76.70378695	    120.37089636	     83.04335193
      9.03333330	     11.06532918	     10.81826006	      3.93367575	      0.06403751	      0.94921916	      0.13861695	      0.90954645	     -1.72276881	     -5.31407590	     19.53952065	      0.34102897	      4.99504856	    -15.69399310	     -7.49999987	     36.50823363	      8.09864166	     -5.07999362	      2.02176187	      0.03528640	    -10.21675784	     -4.12272687	     -7.49999987	    -34.76513706	     -5.32273800	     -5.31349186	     57.10603559	      5.96561046	     34.52570073	    140.62046013	    104.64596477	     81.98224721	     14.09940638	     77.05539882	    120.47199691	     83.32065220
      9.05000000	     11.17870435	     10.94014136	      3.97604769	      0.06261111	      0.94746957	      0.13785812	      1.30856458	     -1.78539877	     -4.80882233	     20.43513250	      0.35666035	      5.46095499	    -16.06705471	     -7.49999987	     36.24911447	      8.34503859	     -5.70414213	      1.76362246	      0.03078102	     -9.98804609	     -3.74233092	     -7.49999987	    -35.28771297	     -5.49500701	     -5.35568901	     57.74629668	      5.85230033	     34.52951125	    141.62335306	    104.56230698	     82.49429963	     14.37822243	     77.14453822	    120.44127024	     83.81420417
      9.06666670	     11.29248487	     10.89033633	      3.94770939	      0.06118885	      0.94455509	      0.13706285	      1.72521890	     -1.70901606	     -4.40380802	     21.36916099	      0.37296222	      6.36887369	    -16.18499753	     -7.49999987	     36.08514599	      8.42878087	     -6.29241348	      1.73310373	      0.03024837	    -10.00785971	     -3.54965698	     -7.49999987	    -35.76937047	     -5.37576330	     -5.35723988	     58.39977223	      5.86859580	     34.79313437	    142.79467940	    104.79271843	     83.00665244	     14.48299000	     77.16345878	    120.36630742	     83.69717169
      9.08333330	     11.25457278	     10.78731162	      4.02401273	      0.06006895	      0.94085382	      0.13645677	      2.49051619	     -1.62679443	     -4.20124398	     22.75031506	      0.39706790	      7.14612098	    -16.64017237	     -7.49999987	     36.06343635	      8.52920000	     -6.76308028	      1.69540095	      0.02959033	     -9.97846105	     -3.43371738	     -7.49999987	    -36.23586004	     -5.20820335	     -5.51581076	     59.19410815	      5.88999849	     34.81098339	    143.48535536	    104.69323431	     83.75781724	     14.45851640	     77.17489574	    120.14177006	     82.88624236
